<svg xmlns="http://www.w3.org/2000/svg" width="850" height="388" viewBox="0 0 850 388" fill="none"><path d="M850 375.5C850 382.404 659.721 388 425 388C190.279 388 0 382.404 0 375.5C0 368.596 190.279 363 425 363C659.721 363 850 368.596 850 375.5Z" fill="#F0F0F0"/><path d="M83.9824 319.19C83.9824 313.192 88.8445 308.33 94.8422 308.33H190.584C196.581 308.33 201.443 313.192 201.443 319.19V359.188C201.443 365.186 196.581 370.048 190.584 370.048H94.8422C88.8445 370.048 83.9824 365.186 83.9824 359.188V319.19Z" fill="#040505"/><path d="M55.2896 319.19C55.2896 313.192 60.1516 308.33 66.1493 308.33H161.891C167.888 308.33 172.75 313.192 172.75 319.19V359.188C172.75 365.186 167.888 370.048 161.891 370.048H66.1493C60.1516 370.048 55.2896 365.186 55.2896 359.188V319.19Z" fill="#474747"/><path d="M161.094 358.093C161.094 359.827 159.689 361.232 157.956 361.232C156.222 361.232 154.817 359.827 154.817 358.093C154.817 356.36 156.222 354.955 157.956 354.955C159.689 354.955 161.094 356.36 161.094 358.093Z" fill="#00CA50"/><path fill-rule="evenodd" clip-rule="evenodd" d="M162.18 358.093C162.18 360.426 160.289 362.318 157.956 362.318C155.623 362.318 153.731 360.426 153.731 358.093C153.731 355.76 155.623 353.869 157.956 353.869C160.289 353.869 162.18 355.76 162.18 358.093ZM157.956 361.232C159.689 361.232 161.094 359.827 161.094 358.093C161.094 356.36 159.689 354.955 157.956 354.955C156.222 354.955 154.817 356.36 154.817 358.093C154.817 359.827 156.222 361.232 157.956 361.232Z" fill="#040505"/><path d="M171.857 257.289H107.416C107.416 257.289 115.471 263.262 115.471 282.663C115.471 302.064 107.416 308.036 107.416 308.036H171.857C171.857 308.036 179.913 302.064 179.913 282.663C179.913 263.262 171.857 257.289 171.857 257.289Z" fill="#E1E3E5"/><path fill-rule="evenodd" clip-rule="evenodd" d="M107.416 257.289C107.416 257.289 107.861 257.619 108.541 258.375C110.757 260.837 115.471 267.82 115.471 282.663C115.471 297.505 110.757 304.488 108.541 306.95C107.861 307.707 107.416 308.036 107.416 308.036H171.857C171.857 308.036 179.913 302.064 179.913 282.663C179.913 263.262 171.857 257.289 171.857 257.289H107.416ZM109.965 258.375H171.46C171.464 258.378 171.467 258.382 171.471 258.385C171.663 258.56 171.949 258.841 172.299 259.241C172.998 260.04 173.954 261.32 174.919 263.197C176.846 266.947 178.827 273.117 178.827 282.663C178.827 292.208 176.846 298.379 174.919 302.129C173.954 304.006 172.998 305.286 172.299 306.085C171.949 306.485 171.663 306.765 171.471 306.94C171.467 306.944 171.464 306.947 171.46 306.95H109.965C110.693 306.041 111.554 304.786 112.41 303.121C114.51 299.034 116.557 292.518 116.557 282.663C116.557 272.807 114.51 266.291 112.41 262.204C111.554 260.54 110.693 259.284 109.965 258.375Z" fill="#E1E3E5"/><path d="M171.857 257.289H107.416C107.416 257.289 84.0678 257.83 84.0678 289.868C84.0678 305.355 83.0079 336.811 75.0114 353.398C66.4651 371.124 50.9456 373.488 50.9456 373.488H115.387C115.387 373.488 130.906 371.124 139.453 353.398C147.449 336.811 148.509 305.355 148.509 289.868C148.509 257.83 171.857 257.289 171.857 257.289Z" fill="#F0F0F0"/><path fill-rule="evenodd" clip-rule="evenodd" d="M107.416 257.289H171.857C171.857 257.289 169.602 257.341 166.494 258.375C159.6 260.668 148.509 267.787 148.509 289.868C148.509 305.355 147.449 336.811 139.453 353.398C130.906 371.124 115.387 373.488 115.387 373.488H50.9456C50.9456 373.488 52.4573 373.258 54.797 372.402C59.9537 370.516 69.1324 365.592 75.0114 353.398C83.0079 336.811 84.0678 305.355 84.0678 289.868C84.0678 257.83 107.416 257.289 107.416 257.289ZM57.6422 372.402C58.4835 372.016 59.3784 371.563 60.3095 371.035C65.4188 368.137 71.6062 362.962 75.9896 353.869C80.0734 345.399 82.3513 333.231 83.6182 321.336C84.8884 309.41 85.1538 297.632 85.1538 289.868C85.1538 274.152 90.8579 266.36 96.3703 262.45C99.1547 260.475 101.942 259.454 104.033 258.927C105.078 258.664 105.944 258.526 106.544 258.453C106.843 258.417 107.075 258.397 107.229 258.386C107.305 258.381 107.363 258.378 107.398 258.376L107.433 258.375H163.543C162.258 258.967 160.907 259.72 159.555 260.679C153.393 265.049 147.423 273.546 147.423 289.868C147.423 297.592 147.159 309.285 145.9 321.106C144.637 332.957 142.387 344.81 138.474 352.926C134.311 361.561 128.466 366.431 123.679 369.146C121.282 370.506 119.147 371.326 117.62 371.806C116.857 372.045 116.246 372.199 115.832 372.293C115.625 372.339 115.467 372.371 115.364 372.39C115.337 372.395 115.315 372.399 115.296 372.402H57.6422Z" fill="#E1E3E5"/><path d="M47.0551 322.447H111.496C111.496 322.447 103.441 328.42 103.441 347.821C103.441 367.222 111.496 373.195 111.496 373.195H47.0551C47.0551 373.195 39 367.222 39 347.821C39 328.42 47.0551 322.447 47.0551 322.447Z" fill="#E1E3E5"/><path fill-rule="evenodd" clip-rule="evenodd" d="M111.496 322.447C111.496 322.447 111.052 322.777 110.371 323.533C108.156 325.995 103.441 332.979 103.441 347.821C103.441 362.663 108.156 369.646 110.371 372.109C111.052 372.865 111.496 373.195 111.496 373.195H47.0551C47.0551 373.195 39 367.222 39 347.821C39 328.42 47.0551 322.447 47.0551 322.447H111.496ZM108.948 323.533H47.4528C47.4491 323.537 47.4453 323.54 47.4415 323.544C47.2499 323.719 46.9637 323.999 46.6138 324.399C45.9145 325.198 44.9583 326.478 43.9935 328.355C42.0663 332.105 40.086 338.275 40.086 347.821C40.086 357.366 42.0663 363.537 43.9935 367.287C44.9583 369.164 45.9145 370.444 46.6138 371.243C46.9637 371.643 47.2499 371.923 47.4415 372.098C47.4453 372.102 47.4491 372.105 47.4528 372.109H108.948C108.219 371.199 107.358 369.944 106.503 368.28C104.402 364.193 102.355 357.676 102.355 347.821C102.355 337.966 104.402 331.449 106.503 327.362C107.358 325.698 108.219 324.443 108.948 323.533Z" fill="#E1E3E5"/><path d="M358.602 222.383C358.602 218.425 361.847 215.217 365.851 215.217H403.251C407.254 215.217 410.5 218.425 410.5 222.383V306.324C410.5 310.282 407.254 313.491 403.251 313.491H365.851C361.847 313.491 358.602 310.282 358.602 306.324V222.383Z" fill="#040505"/><path d="M213.862 11.8931C213.862 5.87703 218.739 1 224.755 1H546.466C552.482 1 557.359 5.87703 557.359 11.8931V215.232C557.359 221.248 552.482 226.125 546.466 226.125H224.755C218.739 226.125 213.862 221.248 213.862 215.232V11.8931Z" fill="#040505"/><path d="M207.326 11.8931C207.326 5.87703 212.203 1 218.219 1H539.93C545.946 1 550.823 5.87703 550.823 11.8931V215.232C550.823 221.248 545.946 226.125 539.93 226.125H218.219C212.203 226.125 207.326 221.248 207.326 215.232V11.8931Z" fill="#474747"/><path d="M213.136 16.2543C213.136 12.2435 216.387 8.99219 220.398 8.99219H537.751C541.762 8.99219 545.013 12.2435 545.013 16.2543V200.941C545.013 204.951 541.762 208.203 537.751 208.203H220.398C216.387 208.203 213.136 204.951 213.136 200.941V16.2543Z" fill="white"/><path d="M537.751 8.98828H220.398C216.387 8.98828 213.136 12.2396 213.136 16.2504V20.9707H545.013V16.2504C545.013 12.2396 541.762 8.98828 537.751 8.98828Z" fill="#E1E2FF"/><path d="M225.788 40.0958C225.788 38.2965 227.246 36.8379 229.046 36.8379H252.937C254.736 36.8379 256.195 38.2965 256.195 40.0958V63.9872C256.195 65.7866 254.736 67.2452 252.937 67.2452H229.046C227.246 67.2452 225.788 65.7866 225.788 63.9872V40.0958Z" fill="#E1E2FF"/><path d="M267.055 40.0958C267.055 38.2965 268.513 36.8379 270.313 36.8379H377.824C379.623 36.8379 381.082 38.2965 381.082 40.0958V42.2678C381.082 44.0671 379.623 45.5257 377.824 45.5257H270.313C268.513 45.5257 267.055 44.0671 267.055 42.2678V40.0958Z" fill="#E1E2FF"/><path d="M267.055 55.2989C267.055 53.4996 268.513 52.041 270.313 52.041H296.376C298.175 52.041 299.634 53.4996 299.634 55.2989V63.9867C299.634 65.786 298.175 67.2447 296.376 67.2447H270.313C268.513 67.2447 267.055 65.786 267.055 63.9867V55.2989Z" fill="#E1E2FF"/><path d="M394.114 52.0414C394.114 46.0437 398.976 41.1816 404.974 41.1816V41.1816C410.971 41.1816 415.833 46.0437 415.833 52.0414V52.0414C415.833 58.0391 410.971 62.9011 404.974 62.9011V62.9011C398.976 62.9011 394.114 58.0391 394.114 52.0414V52.0414Z" fill="#FFE1E1"/><path d="M445.154 52.0414C445.154 46.0437 450.016 41.1816 456.014 41.1816V41.1816C462.012 41.1816 466.874 46.0437 466.874 52.0414V52.0414C466.874 58.0391 462.012 62.9011 456.014 62.9011V62.9011C450.016 62.9011 445.154 58.0391 445.154 52.0414V52.0414Z" fill="#AFF8B2"/><path d="M457.686 59.5837V54.0478H463.238V49.9754H457.686V44.4395H453.948V49.9754H448.412V54.0478H453.948V59.5837H457.686Z" fill="white"/><path d="M412.198 53.9415H397.372V49.8691H412.198V53.9415Z" fill="white"/><path d="M488.918 58.8385V55.7948H482.406C482.703 55.3282 483.149 54.851 483.742 54.3843C484.326 53.9177 484.898 53.4935 485.46 53.1223C486.023 52.7511 486.574 52.3481 487.115 51.9027C487.645 51.4573 488.08 50.927 488.419 50.2907C488.748 49.665 488.918 48.9651 488.918 48.1909C488.918 46.8228 488.409 45.6669 487.412 44.723C486.415 43.7897 485.142 43.3125 483.594 43.3125C482.799 43.3125 482.067 43.4504 481.409 43.7049C480.752 43.9594 480.243 44.2458 479.882 44.5533C479.522 44.8715 479.203 45.232 478.928 45.6456C478.652 46.0593 478.482 46.3456 478.419 46.5047C478.355 46.6744 478.302 46.8016 478.281 46.8971L480.996 48.1909L481.165 47.7349C481.293 47.4379 481.547 47.1304 481.95 46.8122C482.353 46.5047 482.83 46.3456 483.382 46.3456C484.071 46.3456 484.601 46.5259 484.983 46.8759C485.365 47.2258 485.556 47.7031 485.556 48.3076C485.556 48.8272 485.365 49.3151 485.004 49.7605C484.644 50.2059 484.188 50.5983 483.658 50.9377C483.127 51.277 482.544 51.68 481.918 52.1573C481.282 52.6345 480.699 53.1329 480.168 53.6632C479.628 54.1935 479.182 54.904 478.822 55.8054C478.461 56.7175 478.281 57.725 478.281 58.8385H488.918Z" fill="#BCBEFF"/><path d="M498.484 48.7424C497.466 48.7424 496.67 48.9227 496.098 49.2832L496.31 46.4622H502.609V43.6307H493.383L492.842 52.3269L495.122 52.539L495.355 52.2315C495.514 52.0406 495.801 51.8391 496.214 51.6376C496.617 51.4467 497.084 51.3406 497.614 51.3406C498.367 51.3406 498.993 51.5846 499.481 52.0618C499.968 52.5496 500.212 53.1435 500.212 53.8435C500.212 54.554 499.99 55.1267 499.523 55.5721C499.056 56.0176 498.42 56.2297 497.603 56.2297C496.967 56.2297 496.352 56.0918 495.737 55.8054C495.132 55.5297 494.74 55.307 494.549 55.1373C494.369 54.9676 494.231 54.8298 494.136 54.7131L492.184 56.7705L492.386 57.0144C492.524 57.1947 492.746 57.3962 493.054 57.6295C493.372 57.8629 493.733 58.0856 494.146 58.3189C494.56 58.5522 495.101 58.7537 495.758 58.9234C496.416 59.0931 497.105 59.1673 497.826 59.1673C499.544 59.1673 500.934 58.6689 501.994 57.6614C503.055 56.6539 503.574 55.3812 503.574 53.8435C503.574 52.38 503.097 51.171 502.121 50.1953C501.156 49.2302 499.947 48.7424 498.484 48.7424Z" fill="#BCBEFF"/><path d="M505.876 57.428C505.876 57.8629 506.045 58.2446 506.385 58.5628C506.724 58.8916 507.127 59.0506 507.615 59.0506C508.092 59.0506 508.506 58.8916 508.845 58.5628C509.184 58.2446 509.354 57.8629 509.354 57.428C509.354 56.9932 509.184 56.6114 508.845 56.2827C508.506 55.9645 508.092 55.7948 507.615 55.7948C507.127 55.7948 506.724 55.9645 506.385 56.2827C506.045 56.6114 505.876 56.9932 505.876 57.428Z" fill="#BCBEFF"/><path d="M514.126 51.2346C514.126 49.6438 514.445 48.4136 515.091 47.544C515.738 46.6744 516.502 46.2395 517.393 46.2395C518.273 46.2395 519.037 46.6744 519.684 47.544C520.32 48.4136 520.649 49.6438 520.649 51.2346C520.649 52.8254 520.32 54.0556 519.684 54.9252C519.037 55.7948 518.273 56.2297 517.393 56.2297C516.502 56.2297 515.738 55.7948 515.091 54.9252C514.445 54.0556 514.126 52.8254 514.126 51.2346ZM523.904 51.2346C523.904 48.859 523.268 46.9501 522.006 45.4972C520.733 44.0443 519.196 43.3125 517.393 43.3125C515.579 43.3125 514.042 44.0443 512.769 45.4972C511.496 46.9501 510.86 48.859 510.86 51.2346C510.86 53.6102 511.496 55.5297 512.769 56.9826C514.042 58.4461 515.579 59.1673 517.393 59.1673C519.196 59.1673 520.733 58.4461 522.006 56.9826C523.268 55.5297 523.904 53.6102 523.904 51.2346Z" fill="#BCBEFF"/><path d="M528.253 51.2346C528.253 49.6438 528.571 48.4136 529.218 47.544C529.865 46.6744 530.628 46.2395 531.519 46.2395C532.399 46.2395 533.163 46.6744 533.81 47.544C534.446 48.4136 534.775 49.6438 534.775 51.2346C534.775 52.8254 534.446 54.0556 533.81 54.9252C533.163 55.7948 532.399 56.2297 531.519 56.2297C530.628 56.2297 529.865 55.7948 529.218 54.9252C528.571 54.0556 528.253 52.8254 528.253 51.2346ZM538.031 51.2346C538.031 48.859 537.394 46.9501 536.132 45.4972C534.86 44.0443 533.322 43.3125 531.519 43.3125C529.705 43.3125 528.168 44.0443 526.895 45.4972C525.622 46.9501 524.986 48.859 524.986 51.2346C524.986 53.6102 525.622 55.5297 526.895 56.9826C528.168 58.4461 529.705 59.1673 531.519 59.1673C533.322 59.1673 534.86 58.4461 536.132 56.9826C537.394 55.5297 538.031 53.6102 538.031 51.2346Z" fill="#BCBEFF"/><path d="M429.414 43.6309L429.318 43.8111C429.255 43.9384 429.149 44.0975 429 44.2778C428.852 44.4581 428.661 44.6384 428.449 44.8292C428.237 45.0201 427.929 45.2004 427.547 45.3701C427.155 45.5398 426.731 45.6459 426.264 45.6989V47.7669H428.862V58.8387H432.129V43.6309H429.414Z" fill="#BCBEFF"/><path d="M225.788 86.7911C225.788 84.9918 227.246 83.5332 229.046 83.5332H252.937C254.736 83.5332 256.195 84.9918 256.195 86.7911V110.683C256.195 112.482 254.736 113.94 252.937 113.94H229.046C227.246 113.94 225.788 112.482 225.788 110.683V86.7911Z" fill="#E1E2FF"/><path d="M267.055 86.7911C267.055 84.9918 268.513 83.5332 270.313 83.5332H377.824C379.623 83.5332 381.082 84.9918 381.082 86.7911V88.9631C381.082 90.7624 379.623 92.221 377.824 92.221H270.313C268.513 92.221 267.055 90.7624 267.055 88.9631V86.7911Z" fill="#E1E2FF"/><path d="M267.055 101.994C267.055 100.195 268.513 98.7363 270.313 98.7363H296.376C298.175 98.7363 299.634 100.195 299.634 101.994V110.682C299.634 112.481 298.175 113.94 296.376 113.94H270.313C268.513 113.94 267.055 112.481 267.055 110.682V101.994Z" fill="#E1E2FF"/><path d="M394.114 98.7367C394.114 92.739 398.976 87.877 404.974 87.877V87.877C410.971 87.877 415.833 92.739 415.833 98.7367V98.7367C415.833 104.734 410.971 109.596 404.974 109.596V109.596C398.976 109.596 394.114 104.734 394.114 98.7367V98.7367Z" fill="#FFE1E1"/><path d="M445.154 98.7367C445.154 92.739 450.016 87.877 456.014 87.877V87.877C462.012 87.877 466.874 92.739 466.874 98.7367V98.7367C466.874 104.734 462.012 109.596 456.014 109.596V109.596C450.016 109.596 445.154 104.734 445.154 98.7367V98.7367Z" fill="#AFF8B2"/><path d="M457.686 106.279V100.743H463.238V96.6707H457.686V91.1348H453.948V96.6707H448.412V100.743H453.948V106.279H457.686Z" fill="white"/><path d="M412.198 100.637H397.372V96.5645H412.198V100.637Z" fill="white"/><path d="M498.667 95.4377C497.649 95.4377 496.854 95.618 496.281 95.9785L496.493 93.1576H502.793V90.326H493.566L493.025 99.0222L495.305 99.2344L495.539 98.9268C495.698 98.7359 495.984 98.5344 496.398 98.3329C496.801 98.142 497.267 98.036 497.798 98.036C498.551 98.036 499.176 98.2799 499.664 98.7571C500.152 99.245 500.396 99.8388 500.396 100.539C500.396 101.249 500.173 101.822 499.706 102.267C499.24 102.713 498.604 102.925 497.787 102.925C497.151 102.925 496.536 102.787 495.92 102.501C495.316 102.225 494.924 102.002 494.733 101.833C494.552 101.663 494.414 101.525 494.319 101.408L492.368 103.466L492.569 103.71C492.707 103.89 492.93 104.092 493.237 104.325C493.555 104.558 493.916 104.781 494.33 105.014C494.743 105.248 495.284 105.449 495.942 105.619C496.599 105.788 497.288 105.863 498.01 105.863C499.728 105.863 501.117 105.364 502.178 104.357C503.238 103.349 503.758 102.077 503.758 100.539C503.758 99.0753 503.28 97.8663 502.305 96.8906C501.34 95.9255 500.131 95.4377 498.667 95.4377Z" fill="#BCBEFF"/><path d="M506.059 104.123C506.059 104.558 506.229 104.94 506.568 105.258C506.907 105.587 507.31 105.746 507.798 105.746C508.276 105.746 508.689 105.587 509.028 105.258C509.368 104.94 509.538 104.558 509.538 104.123C509.538 103.689 509.368 103.307 509.028 102.978C508.689 102.66 508.276 102.49 507.798 102.49C507.31 102.49 506.907 102.66 506.568 102.978C506.229 103.307 506.059 103.689 506.059 104.123Z" fill="#BCBEFF"/><path d="M514.31 97.9299C514.31 96.3391 514.628 95.1089 515.275 94.2393C515.922 93.3697 516.685 92.9349 517.576 92.9349C518.457 92.9349 519.22 93.3697 519.867 94.2393C520.503 95.1089 520.832 96.3391 520.832 97.9299C520.832 99.5207 520.503 100.751 519.867 101.621C519.22 102.49 518.457 102.925 517.576 102.925C516.685 102.925 515.922 102.49 515.275 101.621C514.628 100.751 514.31 99.5207 514.31 97.9299ZM524.088 97.9299C524.088 95.5543 523.452 93.6454 522.19 92.1925C520.917 90.7396 519.379 90.0078 517.576 90.0078C515.763 90.0078 514.225 90.7396 512.952 92.1925C511.68 93.6454 511.043 95.5543 511.043 97.9299C511.043 100.305 511.68 102.225 512.952 103.678C514.225 105.141 515.763 105.863 517.576 105.863C519.379 105.863 520.917 105.141 522.19 103.678C523.452 102.225 524.088 100.305 524.088 97.9299Z" fill="#BCBEFF"/><path d="M528.436 97.9299C528.436 96.3391 528.754 95.1089 529.401 94.2393C530.048 93.3697 530.812 92.9349 531.702 92.9349C532.583 92.9349 533.346 93.3697 533.993 94.2393C534.629 95.1089 534.958 96.3391 534.958 97.9299C534.958 99.5207 534.629 100.751 533.993 101.621C533.346 102.49 532.583 102.925 531.702 102.925C530.812 102.925 530.048 102.49 529.401 101.621C528.754 100.751 528.436 99.5207 528.436 97.9299ZM538.214 97.9299C538.214 95.5543 537.578 93.6454 536.316 92.1925C535.043 90.7396 533.505 90.0078 531.702 90.0078C529.889 90.0078 528.351 90.7396 527.079 92.1925C525.806 93.6454 525.17 95.5543 525.17 97.9299C525.17 100.305 525.806 102.225 527.079 103.678C528.351 105.141 529.889 105.863 531.702 105.863C533.505 105.863 535.043 105.141 536.316 103.678C537.578 102.225 538.214 100.305 538.214 97.9299Z" fill="#BCBEFF"/><path d="M435.056 105.534V102.49H428.544C428.841 102.024 429.287 101.546 429.881 101.08C430.464 100.613 431.037 100.189 431.599 99.8176C432.161 99.4465 432.712 99.0435 433.253 98.598C433.783 98.1526 434.218 97.6224 434.558 96.986C434.886 96.3603 435.056 95.6604 435.056 94.8862C435.056 93.5181 434.547 92.3622 433.55 91.4183C432.553 90.485 431.281 90.0078 429.732 90.0078C428.937 90.0078 428.205 90.1457 427.547 90.4002C426.89 90.6547 426.381 90.9411 426.02 91.2486C425.66 91.5668 425.342 91.9274 425.066 92.341C424.79 92.7546 424.62 93.0409 424.557 93.2C424.493 93.3697 424.44 93.4969 424.419 93.5924L427.134 94.8862L427.304 94.4302C427.431 94.1332 427.685 93.8257 428.088 93.5075C428.491 93.2 428.969 93.0409 429.52 93.0409C430.209 93.0409 430.74 93.2212 431.121 93.5712C431.503 93.9211 431.694 94.3984 431.694 95.0029C431.694 95.5225 431.503 96.0104 431.143 96.4558C430.782 96.9012 430.326 97.2936 429.796 97.633C429.266 97.9723 428.682 98.3753 428.057 98.8526C427.42 99.3298 426.837 99.8282 426.307 100.359C425.766 100.889 425.32 101.599 424.96 102.501C424.599 103.413 424.419 104.42 424.419 105.534H435.056Z" fill="#BCBEFF"/><path d="M225.788 133.49C225.788 131.691 227.246 130.232 229.046 130.232H252.937C254.736 130.232 256.195 131.691 256.195 133.49V157.382C256.195 159.181 254.736 160.64 252.937 160.64H229.046C227.246 160.64 225.788 159.181 225.788 157.382V133.49Z" fill="#E1E2FF"/><path d="M267.055 133.49C267.055 131.691 268.513 130.232 270.313 130.232H377.824C379.623 130.232 381.082 131.691 381.082 133.49V135.662C381.082 137.462 379.623 138.92 377.824 138.92H270.313C268.513 138.92 267.055 137.462 267.055 135.662V133.49Z" fill="#E1E2FF"/><path d="M267.055 148.693C267.055 146.894 268.513 145.436 270.313 145.436H296.376C298.175 145.436 299.634 146.894 299.634 148.693V157.381C299.634 159.181 298.175 160.639 296.376 160.639H270.313C268.513 160.639 267.055 159.181 267.055 157.381V148.693Z" fill="#E1E2FF"/><path d="M394.114 145.436C394.114 139.438 398.976 134.576 404.974 134.576V134.576C410.971 134.576 415.833 139.438 415.833 145.436V145.436C415.833 151.434 410.971 156.296 404.974 156.296V156.296C398.976 156.296 394.114 151.434 394.114 145.436V145.436Z" fill="#FFE1E1"/><path d="M445.154 145.436C445.154 139.438 450.016 134.576 456.014 134.576V134.576C462.012 134.576 466.874 139.438 466.874 145.436V145.436C466.874 151.434 462.012 156.296 456.014 156.296V156.296C450.016 156.296 445.154 151.434 445.154 145.436V145.436Z" fill="#AFF8B2"/><path d="M457.686 152.978V147.442H463.238V143.37H457.686V137.834H453.948V143.37H448.412V147.442H453.948V152.978H457.686Z" fill="white"/><path d="M412.198 147.336H397.372V143.264H412.198V147.336Z" fill="white"/><path d="M492.802 137.025V139.963H499.749L493.884 152.233H497.256L503.227 139.634V137.025H492.802Z" fill="#BCBEFF"/><path d="M506.059 150.823C506.059 151.257 506.228 151.639 506.568 151.957C506.907 152.286 507.31 152.445 507.798 152.445C508.275 152.445 508.689 152.286 509.028 151.957C509.368 151.639 509.537 151.257 509.537 150.823C509.537 150.388 509.368 150.006 509.028 149.677C508.689 149.359 508.275 149.189 507.798 149.189C507.31 149.189 506.907 149.359 506.568 149.677C506.228 150.006 506.059 150.388 506.059 150.823Z" fill="#BCBEFF"/><path d="M518.223 142.137C517.205 142.137 516.409 142.317 515.837 142.678L516.049 139.857H522.348V137.025H513.122L512.581 145.721L514.861 145.934L515.094 145.626C515.253 145.435 515.54 145.234 515.953 145.032C516.356 144.841 516.823 144.735 517.353 144.735C518.106 144.735 518.732 144.979 519.22 145.456C519.708 145.944 519.952 146.538 519.952 147.238C519.952 147.949 519.729 148.521 519.262 148.967C518.796 149.412 518.159 149.624 517.343 149.624C516.706 149.624 516.091 149.486 515.476 149.2C514.872 148.924 514.479 148.702 514.288 148.532C514.108 148.362 513.97 148.224 513.875 148.108L511.923 150.165L512.125 150.409C512.263 150.589 512.486 150.791 512.793 151.024C513.111 151.257 513.472 151.48 513.885 151.713C514.299 151.947 514.84 152.148 515.497 152.318C516.155 152.488 516.844 152.562 517.565 152.562C519.283 152.562 520.673 152.063 521.733 151.056C522.794 150.048 523.313 148.776 523.313 147.238C523.313 145.774 522.836 144.565 521.861 143.59C520.895 142.625 519.686 142.137 518.223 142.137Z" fill="#BCBEFF"/><path d="M528.436 144.629C528.436 143.038 528.754 141.808 529.401 140.939C530.048 140.069 530.811 139.634 531.702 139.634C532.582 139.634 533.346 140.069 533.993 140.939C534.629 141.808 534.958 143.038 534.958 144.629C534.958 146.22 534.629 147.45 533.993 148.32C533.346 149.189 532.582 149.624 531.702 149.624C530.811 149.624 530.048 149.189 529.401 148.32C528.754 147.45 528.436 146.22 528.436 144.629ZM538.214 144.629C538.214 142.254 537.577 140.345 536.315 138.892C535.043 137.439 533.505 136.707 531.702 136.707C529.889 136.707 528.351 137.439 527.078 138.892C525.806 140.345 525.169 142.254 525.169 144.629C525.169 147.005 525.806 148.924 527.078 150.377C528.351 151.841 529.889 152.562 531.702 152.562C533.505 152.562 535.043 151.841 536.315 150.377C537.577 148.924 538.214 147.005 538.214 144.629Z" fill="#BCBEFF"/><path d="M429.414 137.025L429.318 137.206C429.255 137.333 429.149 137.492 429 137.672C428.852 137.853 428.661 138.033 428.449 138.224C428.237 138.415 427.929 138.595 427.547 138.765C427.155 138.934 426.731 139.04 426.264 139.093V141.161H428.862V152.233H432.129V137.025H429.414Z" fill="#BCBEFF"/><path d="M450.584 178.012C450.584 176.213 452.043 174.754 453.842 174.754H537.462C539.262 174.754 540.72 176.213 540.72 178.012V201.903C540.72 203.703 539.262 205.161 537.462 205.161H453.842C452.043 205.161 450.584 203.703 450.584 201.903V178.012Z" fill="#AFF8B2"/><path d="M225.788 178.012C225.788 176.213 227.246 174.754 229.046 174.754H296.376C298.175 174.754 299.634 176.213 299.634 178.012V201.903C299.634 203.703 298.175 205.161 296.376 205.161H229.046C227.246 205.161 225.788 203.703 225.788 201.903V178.012Z" fill="#FFE1E1"/><path d="M269.192 193.963L265.278 190.049L269.204 186.123L266.324 183.243L262.398 187.169L258.484 183.255L255.84 185.898L259.755 189.812L255.84 193.727L258.72 196.607L262.634 192.692L266.549 196.607L269.192 193.963Z" fill="white"/><path d="M474.545 190.888L474.758 190.782C474.917 190.718 475.097 190.601 475.309 190.432C475.521 190.262 475.723 190.06 475.935 189.817C476.147 189.583 476.327 189.265 476.476 188.883C476.624 188.502 476.709 188.077 476.709 187.632C476.709 186.433 476.242 185.426 475.309 184.62C474.376 183.814 473.135 183.4 471.608 183.4C470.94 183.4 470.303 183.485 469.699 183.655C469.084 183.825 468.596 184.005 468.225 184.196C467.854 184.387 467.514 184.62 467.196 184.885C466.878 185.161 466.676 185.341 466.591 185.447C466.507 185.553 466.443 185.627 466.401 185.681L468.352 187.632L468.681 187.282C468.893 187.059 469.232 186.826 469.72 186.582C470.208 186.349 470.728 186.221 471.279 186.221C471.915 186.221 472.424 186.391 472.796 186.709C473.156 187.038 473.347 187.452 473.347 187.961C473.347 188.512 473.156 188.958 472.785 189.297C472.414 189.636 471.915 189.806 471.279 189.806H469.762V192.521H471.396C472.17 192.521 472.774 192.712 473.22 193.072C473.665 193.444 473.888 193.91 473.888 194.472C473.888 195.045 473.655 195.512 473.209 195.872C472.764 196.243 472.117 196.424 471.279 196.424C470.855 196.424 470.452 196.371 470.059 196.254C469.667 196.148 469.349 196.021 469.094 195.872C468.84 195.724 468.606 195.565 468.384 195.374C468.15 195.183 468.013 195.056 467.949 194.981C467.885 194.907 467.832 194.843 467.811 194.801L465.849 196.858L466.072 197.102C466.21 197.283 466.443 197.484 466.761 197.717C467.079 197.951 467.451 198.173 467.875 198.407C468.299 198.64 468.85 198.842 469.519 199.011C470.187 199.181 470.887 199.255 471.608 199.255C473.305 199.255 474.662 198.81 475.701 197.908C476.741 197.017 477.26 195.946 477.26 194.695C477.26 194.143 477.154 193.645 476.963 193.178C476.762 192.712 476.539 192.351 476.306 192.086C476.073 191.832 475.797 191.598 475.489 191.397C475.171 191.195 474.959 191.068 474.832 191.015C474.704 190.962 474.609 190.919 474.545 190.888Z" fill="white"/><path d="M480.739 183.719V186.656H487.685L481.821 198.926H485.193L491.164 186.327V183.719H480.739Z" fill="white"/><path d="M493.995 197.516C493.995 197.951 494.165 198.333 494.504 198.651C494.844 198.979 495.247 199.139 495.735 199.139C496.212 199.139 496.625 198.979 496.965 198.651C497.304 198.333 497.474 197.951 497.474 197.516C497.474 197.081 497.304 196.699 496.965 196.371C496.625 196.052 496.212 195.883 495.735 195.883C495.247 195.883 494.844 196.052 494.504 196.371C494.165 196.699 493.995 197.081 493.995 197.516Z" fill="white"/><path d="M506.16 188.83C505.141 188.83 504.346 189.011 503.773 189.371L503.985 186.55H510.285V183.719H501.058L500.518 192.415L502.798 192.627L503.031 192.319C503.19 192.128 503.476 191.927 503.89 191.725C504.293 191.535 504.76 191.429 505.29 191.429C506.043 191.429 506.669 191.672 507.156 192.15C507.644 192.638 507.888 193.231 507.888 193.931C507.888 194.642 507.665 195.215 507.199 195.66C506.732 196.105 506.096 196.318 505.279 196.318C504.643 196.318 504.028 196.18 503.413 195.893C502.808 195.618 502.416 195.395 502.225 195.225C502.045 195.056 501.907 194.918 501.811 194.801L499.86 196.858L500.062 197.102C500.199 197.283 500.422 197.484 500.73 197.717C501.048 197.951 501.408 198.173 501.822 198.407C502.236 198.64 502.776 198.842 503.434 199.011C504.092 199.181 504.781 199.255 505.502 199.255C507.22 199.255 508.609 198.757 509.67 197.749C510.73 196.742 511.25 195.469 511.25 193.931C511.25 192.468 510.773 191.259 509.797 190.283C508.832 189.318 507.623 188.83 506.16 188.83Z" fill="white"/><path d="M516.372 191.322C516.372 189.732 516.691 188.502 517.337 187.632C517.984 186.762 518.748 186.327 519.639 186.327C520.519 186.327 521.283 186.762 521.93 187.632C522.566 188.502 522.895 189.732 522.895 191.322C522.895 192.913 522.566 194.143 521.93 195.013C521.283 195.883 520.519 196.318 519.639 196.318C518.748 196.318 517.984 195.883 517.337 195.013C516.691 194.143 516.372 192.913 516.372 191.322ZM526.15 191.322C526.15 188.947 525.514 187.038 524.252 185.585C522.979 184.132 521.442 183.4 519.639 183.4C517.825 183.4 516.288 184.132 515.015 185.585C513.742 187.038 513.106 188.947 513.106 191.322C513.106 193.698 513.742 195.618 515.015 197.071C516.288 198.534 517.825 199.255 519.639 199.255C521.442 199.255 522.979 198.534 524.252 197.071C525.514 195.618 526.15 193.698 526.15 191.322Z" fill="white"/><path d="M220.358 276.84C220.358 270.843 225.22 265.98 231.218 265.98H584.159C590.157 265.98 595.019 270.843 595.019 276.84V360.46C595.019 366.458 590.157 371.32 584.159 371.32H231.218C225.22 371.32 220.358 366.458 220.358 360.46V276.84Z" fill="#040505"/><path d="M183.435 276.84C183.435 270.843 188.297 265.98 194.294 265.98H547.236C553.234 265.98 558.096 270.843 558.096 276.84V360.46C558.096 366.458 553.234 371.32 547.236 371.32H194.294C188.297 371.32 183.435 366.458 183.435 360.46V276.84Z" fill="#474747"/><path fill-rule="evenodd" clip-rule="evenodd" d="M200.81 295.301C200.81 288.704 206.158 283.355 212.756 283.355H528.774C535.372 283.355 540.72 288.704 540.72 295.301V341.998C540.72 348.596 535.372 353.944 528.774 353.944H212.756C206.158 353.944 200.81 348.596 200.81 341.998V295.301ZM212.756 285.527C207.358 285.527 202.982 289.903 202.982 295.301V341.998C202.982 347.396 207.358 351.772 212.756 351.772H528.774C534.172 351.772 538.548 347.396 538.548 341.998V295.301C538.548 289.903 534.172 285.527 528.774 285.527H212.756Z" fill="#040505"/><path d="M387.598 321.909C387.598 331.205 380.062 338.741 370.765 338.741C361.469 338.741 353.933 331.205 353.933 321.909C353.933 312.612 361.469 305.076 370.765 305.076C380.062 305.076 387.598 312.612 387.598 321.909Z" fill="#040505"/><path d="M381.082 321.909C381.082 329.406 375.004 335.483 367.507 335.483C360.01 335.483 353.933 329.406 353.933 321.909C353.933 314.412 360.01 308.334 367.507 308.334C375.004 308.334 381.082 314.412 381.082 321.909Z" fill="#474747"/><path fill-rule="evenodd" clip-rule="evenodd" d="M367.507 334.397C374.405 334.397 379.996 328.806 379.996 321.909C379.996 315.011 374.405 309.42 367.507 309.42C360.61 309.42 355.019 315.011 355.019 321.909C355.019 328.806 360.61 334.397 367.507 334.397ZM367.507 335.483C375.004 335.483 381.082 329.406 381.082 321.909C381.082 314.412 375.004 308.334 367.507 308.334C360.01 308.334 353.933 314.412 353.933 321.909C353.933 329.406 360.01 335.483 367.507 335.483Z" fill="#040505"/><path d="M367.64 321.077C368.527 320.63 369.136 319.712 369.136 318.65C369.136 317.151 367.92 315.936 366.421 315.936C364.922 315.936 363.706 317.151 363.706 318.65C363.706 319.712 364.315 320.63 365.202 321.077L364.249 326.795H368.593L367.64 321.077Z" fill="#040505"/><path d="M703.542 351.881H692.27L582.038 316.903C580.937 316.554 579.815 317.376 579.815 318.53V378.235C579.815 379.177 580.579 379.941 581.522 379.941H691.754H701.05L703.542 351.881Z" fill="#222222"/><path d="M785.25 354.82C785.25 353.406 784.104 352.26 782.691 352.26H696.02C694.606 352.26 693.46 353.406 693.46 354.82V377.383C693.46 378.797 694.606 379.943 696.02 379.943H782.691C784.104 379.943 785.25 378.797 785.25 377.383V354.82Z" fill="#040505"/><path d="M677.356 317.057C677.097 316.972 676.825 316.928 676.552 316.928H580.783L692.231 352.141C692.48 352.22 692.74 352.26 693.002 352.26H783.669L677.356 317.057Z" fill="#4E4E4E"/><path d="M719.687 348.615H698.128L684.719 344.244H706.277L719.687 348.615Z" fill="#3B9D56"/><path d="M743.727 348.615H722.169L708.759 344.244H730.318L743.727 348.615Z" fill="#FFD400"/><path d="M767.767 348.615H746.209L732.799 344.244H754.358L767.767 348.615Z" fill="#FA3E2C"/><path d="M704.388 343.525H682.829L669.42 339.154H690.978L704.388 343.525Z" fill="#F0F0F0"/><path d="M728.428 343.525H706.87L693.46 339.154H715.019L728.428 343.525Z" fill="#F0F0F0"/><path d="M752.468 343.525H730.91L717.501 339.154H739.059L752.468 343.525Z" fill="#F0F0F0"/><path d="M690.546 338.425H668.988L655.578 334.054H677.137L690.546 338.425Z" fill="#F0F0F0"/><path d="M714.587 338.425H693.028L679.619 334.054H701.177L714.587 338.425Z" fill="#F0F0F0"/><path d="M738.627 338.425H717.068L703.659 334.054H725.218L738.627 338.425Z" fill="#F0F0F0"/><path d="M674.519 333.326H652.961L639.552 328.955H661.11L674.519 333.326Z" fill="#F0F0F0"/><path d="M698.56 333.326H677.001L663.592 328.955H685.15L698.56 333.326Z" fill="#F0F0F0"/><path d="M722.6 333.326H701.042L687.632 328.955H709.191L722.6 333.326Z" fill="#F0F0F0"/><path d="M660.678 328.226H639.119L625.71 323.855H647.269L660.678 328.226Z" fill="#F0F0F0"/><path d="M684.718 328.226H663.16L649.75 323.855H671.309L684.718 328.226Z" fill="#F0F0F0"/><path d="M708.759 328.226H687.2L673.791 323.855H695.349L708.759 328.226Z" fill="#F0F0F0"/><path d="M666.506 273.582H608.226C608.226 273.582 615.511 287.568 615.511 296.53C615.511 305.491 608.226 319.477 608.226 319.477H666.506C666.506 319.477 673.791 305.491 673.791 296.53C673.791 287.568 666.506 273.582 666.506 273.582Z" fill="#F0F0F0"/><path fill-rule="evenodd" clip-rule="evenodd" d="M608.226 273.582C608.226 273.582 608.43 273.974 608.77 274.668C610.46 278.122 615.511 289.068 615.511 296.53C615.511 303.991 610.46 314.937 608.77 318.391C608.43 319.086 608.226 319.477 608.226 319.477H666.506C666.506 319.477 673.791 305.491 673.791 296.53C673.791 287.568 666.506 273.582 666.506 273.582H608.226ZM609.977 274.668H665.838C665.841 274.674 665.844 274.679 665.847 274.685C666.043 275.078 666.324 275.652 666.661 276.37C667.337 277.806 668.238 279.812 669.138 282.094C670.955 286.7 672.705 292.271 672.705 296.53C672.705 300.788 670.955 306.359 669.138 310.965C668.238 313.247 667.337 315.254 666.661 316.689C666.324 317.407 666.043 317.981 665.847 318.375C665.844 318.38 665.841 318.386 665.838 318.391H609.977C610.091 318.155 610.215 317.895 610.347 317.614C611.037 316.148 611.957 314.098 612.879 311.763C614.704 307.136 616.597 301.233 616.597 296.53C616.597 291.827 614.704 285.924 612.879 281.297C611.957 278.962 611.037 276.911 610.347 275.445C610.215 275.164 610.091 274.904 609.977 274.668Z" fill="#E1E3E5"/><path fill-rule="evenodd" clip-rule="evenodd" d="M577.999 151.5H583.999V165H582.527C582.53 165.166 582.533 165.345 582.536 165.537C582.557 166.885 582.583 168.859 582.605 171.372C582.648 176.397 582.671 183.574 582.593 192.185C582.437 209.406 581.874 232.377 580.246 255.356C578.619 278.316 575.925 301.363 571.484 318.7C569.267 327.357 566.588 334.7 563.322 339.912C560.072 345.096 556.021 348.5 551 348.5C546.25 348.5 542.201 346.37 538.804 342.841C535.431 339.338 532.652 334.415 530.342 328.652C525.721 317.123 522.827 301.842 521.01 286.678C519.19 271.491 518.438 256.316 518.141 244.945C517.992 239.258 517.957 234.518 517.959 231.198C517.96 229.538 517.97 228.233 517.98 227.342C517.985 226.896 517.99 226.554 517.994 226.323C517.996 226.207 517.997 226.119 517.998 226.06L518 225.971C518 225.97 518 225.969 519.5 226C520.999 226.031 520.999 226.031 520.999 226.032L520.998 226.115C520.997 226.172 520.995 226.258 520.993 226.371C520.99 226.598 520.985 226.935 520.98 227.376C520.97 228.257 520.96 229.552 520.959 231.2C520.957 234.497 520.992 239.21 521.14 244.867C521.436 256.184 522.184 271.259 523.989 286.322C525.797 301.408 528.654 316.377 533.126 327.536C535.363 333.117 537.967 337.646 540.965 340.76C543.939 343.849 547.25 345.5 551 345.5C554.479 345.5 557.74 343.169 560.78 338.319C563.802 333.495 566.389 326.502 568.578 317.956C572.95 300.887 575.63 278.059 577.253 255.144C578.875 232.248 579.437 209.344 579.593 192.158C579.671 183.567 579.648 176.408 579.605 171.398C579.584 168.893 579.557 166.925 579.536 165.584C579.533 165.374 579.53 165.179 579.527 165H577.999V151.5Z" fill="black"/><path d="M577.5 50C590.456 38.8027 637.518 42.774 649.964 44.0472C651.714 44.2263 653 45.7018 653 47.4613V79.5239C653 81.4449 651.442 83.0022 649.521 83.0022H569.799C568.171 83.0022 566.773 81.8736 566.603 80.254C565.979 74.3175 565.903 60.023 577.5 50Z" fill="#3A3A3A"/><path d="M600 75.0039C600 76.6608 601.343 78.0039 603 78.0039H645C646.656 78.0039 648 76.6608 648 75.0039V51.0039C648 49.3471 646.656 48.0039 645 48.0039H603C601.343 48.0039 600 49.3471 600 51.0039V75.0039Z" fill="#040505"/><path d="M567 78.0039C565.343 78.0039 564 79.3471 564 81.0039L564 144.004C564 145.661 565.343 147.004 567 147.004L596.632 147.004C598.425 147.004 599.818 145.44 599.612 143.658L598.12 130.791C598.042 130.119 597.737 129.495 597.345 128.944C596.462 127.704 595 125.056 595 121.129C595 118.323 595.746 116.17 596.494 114.717C597.194 113.358 597.283 111.586 596.598 110.22C595.817 108.661 595 106.423 595 103.879C595 100.26 596.652 97.2618 597.504 95.9564C597.812 95.4849 598.034 94.9573 598.099 94.3981L599.612 81.3494C599.818 79.5676 598.425 78.0039 596.632 78.0039L567 78.0039Z" fill="#040505"/><path d="M567 78.0039C565.343 78.0039 564 79.3471 564 81.0039L564 144.004C564 145.661 565.343 147.004 567 147.004L582.632 147.004C584.425 147.004 585.818 145.44 585.612 143.658L584.12 130.791C584.042 130.119 583.737 129.495 583.345 128.944C582.462 127.704 581 125.056 581 121.129C581 118.323 581.746 116.17 582.494 114.717C583.194 113.358 583.283 111.586 582.598 110.22C581.817 108.661 581 106.423 581 103.879C581 100.26 582.652 97.2618 583.504 95.9564C583.812 95.4849 584.034 94.9573 584.099 94.3981L585.612 81.3494C585.818 79.5676 584.425 78.0039 582.632 78.0039L567 78.0039Z" fill="#3A3A3A"/><path d="M563 152C563 153.657 564.343 155 566 155H599C600.656 155 602 153.657 602 152V145C602 143.343 600.656 142 599 142H566C564.343 142 563 143.343 563 145V152Z" fill="#474747"/><path d="M547 98C547 99.6569 548.343 101 550 101H583C584.656 101 586 99.6569 586 98V91C586 89.3431 584.656 88 583 88H550C548.343 88 547 89.3431 547 91V98Z" fill="#474747"/><path d="M594 88.5C594 92.0899 595.79 95 598 95C600.209 95 602 92.0899 602 88.5C602 84.9101 600.209 82 598 82C595.79 82 594 84.9101 594 88.5Z" fill="#15AC52"/><path d="M575.336 51.3481C585.834 41.0439 602.859 42.7314 609.361 43.8467C610.929 44.1156 611.999 45.4935 611.999 47.0842V79.5256C611.999 81.4466 610.442 83.0039 608.521 83.0039H566.333C564.474 83.0039 562.968 81.5456 563.095 79.691C563.501 73.7367 565.551 60.9521 575.336 51.3481Z" fill="#474747"/></svg>